<svg width="120" height="120" viewBox="0 0 120 120" fill="none" xmlns="http://www.w3.org/2000/svg">
<g filter="url(#filter0_d_75_155)">
<path d="M51.6232 93.3189C51.6232 82.2605 56.0161 71.6551 63.8356 63.8356C71.655 56.0162 82.2604 51.6233 93.3188 51.6233C104.377 51.6233 114.983 56.0162 122.802 63.8356C130.622 71.655 135.014 82.2605 135.014 93.3189L113.386 93.3189C113.386 87.9966 111.272 82.8923 107.509 79.1289C103.745 75.3655 98.6411 73.2512 93.3188 73.2513C87.9966 73.2513 82.8923 75.3655 79.1289 79.1289C75.3654 82.8924 73.2512 87.9966 73.2512 93.3189L51.6232 93.3189Z" fill="#656464"/>
<path d="M112.777 21.0464C112.777 30.4769 105.132 38.1218 95.7015 38.1218C86.2711 38.1218 78.6262 30.4769 78.6262 21.0464C78.6262 11.616 86.2711 3.97108 95.7015 3.97108C105.132 3.97108 112.777 11.616 112.777 21.0464Z" fill="#656464"/>
<path d="M-11.913 119.13C-11.913 104.386 -6.05582 90.2453 4.37011 79.8194C14.796 69.3935 28.9366 63.5362 43.6811 63.5362C58.4256 63.5362 72.5662 69.3934 82.9922 79.8194C93.4181 90.2453 99.2753 104.386 99.2754 119.13L70.438 119.13C70.438 112.034 67.619 105.228 62.6011 100.21C57.5832 95.1926 50.7775 92.3736 43.6811 92.3736C36.5848 92.3736 29.7791 95.1926 24.7612 100.21C19.7433 105.228 16.9243 112.034 16.9243 119.13H-11.913Z" fill="black"/>
<path d="M69.6251 22.7672C69.6251 35.3411 59.4319 45.5343 46.858 45.5343C34.284 45.5343 24.0908 35.3411 24.0908 22.7672C24.0908 10.1932 34.284 0 46.858 0C59.4319 0 69.6251 10.1932 69.6251 22.7672Z" fill="black"/>
</g>
<defs>
<filter id="filter0_d_75_155" x="-22.913" y="0" width="168.928" height="142.13" filterUnits="userSpaceOnUse" color-interpolation-filters="sRGB">
<feFlood flood-opacity="0" result="BackgroundImageFix"/>
<feColorMatrix in="SourceAlpha" type="matrix" values="0 0 0 0 0 0 0 0 0 0 0 0 0 0 0 0 0 0 127 0" result="hardAlpha"/>
<feOffset dy="12"/>
<feGaussianBlur stdDeviation="5.5"/>
<feComposite in2="hardAlpha" operator="out"/>
<feColorMatrix type="matrix" values="0 0 0 0 0 0 0 0 0 0 0 0 0 0 0 0 0 0 0.25 0"/>
<feBlend mode="normal" in2="BackgroundImageFix" result="effect1_dropShadow_75_155"/>
<feBlend mode="normal" in="SourceGraphic" in2="effect1_dropShadow_75_155" result="shape"/>
</filter>
</defs>
</svg>
